<svg width="150" height="37" viewBox="0 0 150 37" fill="none" xmlns="http://www.w3.org/2000/svg">
<g clip-path="url(#clip0_164_191)">
<path d="M27.9128 11.2288L5.61217 9.79004L5.60284 17.5885L27.9044 19.0273L27.9128 11.2288Z" fill="black"/>
<path d="M22.3298 22.0385L0.0283185 20.6006L0.0198364 28.3991L22.3205 29.837L22.3298 22.0385Z" fill="black"/>
<path d="M11.1459 0.0541897L11.1375 7.36084L33.4983 7.38592L33.5068 0.0792706L11.1459 0.0541897Z" fill="#F17F1B"/>
<path d="M39.0839 7.37256H45.5491V15.4504H53.6462V7.37256H60.1114V29.781H53.6462V20.8365H45.5491V29.781H39.0839V7.37256Z" fill="black"/>
<path d="M77.7409 28.9452C76.1089 29.688 73.8179 30.1213 71.7151 30.1213C66.2543 30.1213 62.5195 27.1501 62.5195 22.322C62.5195 17.3081 66.5053 14.2131 70.8991 14.2131C74.6966 14.2131 78.6197 16.5344 78.6197 22.0125C78.6197 22.5077 78.5883 23.1267 78.5255 23.5599H68.8278C69.4241 25.1693 70.8991 25.7264 72.5625 25.7264C74.0062 25.7264 75.8892 25.2931 77.7409 24.3027V28.9452V28.9452ZM73.0333 20.4031C72.7508 19.0103 71.7779 18.5461 70.8678 18.5461C69.7693 18.5461 69.0161 19.227 68.7336 20.4031H73.0333Z" fill="black"/>
<path d="M80.1957 36.5899L84.3384 28.1097L78.1871 14.5537H84.5895L86.0645 18.5153C86.5039 19.6914 86.9433 20.8984 87.3199 21.9816H87.3827C87.8221 20.8365 88.2928 19.6604 88.7636 18.4843L90.3642 14.5537H96.233L86.4098 36.5899H80.1957Z" fill="black"/>
<path d="M97.4477 7.37256H112.261V12.7578H103.913V15.6052H110.974V20.6809H103.913V24.3949H112.638V29.7802H97.4477V7.37256V7.37256Z" fill="black"/>
<path d="M124.896 28.9763C123.861 29.75 122.511 30.1214 121.193 30.1214C117.49 30.1214 114.131 27.2121 114.131 22.5078C114.131 17.6487 117.741 14.2132 122.26 14.2132C123.201 14.2132 124.049 14.368 124.771 14.6465L124.833 14.6156V6.13452H131.048V29.7809H124.959V29.0072L124.896 28.9763ZM124.833 19.3818C124.394 19.1961 123.892 19.0723 123.296 19.0723C121.256 19.0723 120.408 20.527 120.408 22.2292C120.408 23.9933 121.318 25.3551 123.107 25.3551C123.766 25.3551 124.394 25.1694 124.833 24.9528V19.3818V19.3818Z" fill="black"/>
<path d="M143.863 28.512C142.733 29.4096 141.258 30.1214 139.469 30.1214C137.774 30.1214 136.393 29.5024 135.514 28.7287C134.416 27.7383 133.914 26.3146 133.914 24.0243V14.5537H140.128V23.2196C140.128 24.0243 140.285 24.3957 140.567 24.6743C140.881 24.9838 141.289 25.1076 141.728 25.1076C142.45 25.1076 143.235 24.7671 143.8 24.241V14.5537H150.014V29.781H143.925V28.543L143.863 28.512Z" fill="black"/>
</g>
<defs>
<clipPath id="clip0_164_191">
<rect width="150" height="36.6667" fill="white"/>
</clipPath>
</defs>
</svg>
